Stage Bottles - Mr. Punch (2007) lossless flac



REM GENRE "Punk Rock"
REM DATE 2007
REM DISCID C00AF50E
REM COMMENT "ExactAudioCopy v0.99pb4"
PERFORMER "Stage Bottles"
TITLE "Mr. Punch"
FILE "Stage Bottles - Mr. Punch.flac" WAVE
  TRACK 01 AUDIO
    TITLE "Intro"
    PERFORMER "Stage Bottles"
    INDEX 01 00:00:00
  TRACK 02 AUDIO
    TITLE "Mr. Punch"
    PERFORMER "Stage Bottles"
    INDEX 01 00:39:00
  TRACK 03 AUDIO
    TITLE "Big Delusions"
    PERFORMER "Stage Bottles"
    INDEX 01 03:06:33
  TRACK 04 AUDIO
    TITLE "I May Be Impolite"
    PERFORMER "Stage Bottles"
    INDEX 01 05:52:19
  TRACK 05 AUDIO
    TITLE "Solidarity"
    PERFORMER "Stage Bottles"
    INDEX 01 08:53:47
  TRACK 06 AUDIO
    TITLE "How Long Will We Wait"
    PERFORMER "Stage Bottles"
    INDEX 01 13:44:55
  TRACK 07 AUDIO
    TITLE "You Can't Just Change Without Making A Stand"
    PERFORMER "Stage Bottles"
    INDEX 01 18:22:73
  TRACK 08 AUDIO
    TITLE "Tired Joe"
    PERFORMER "Stage Bottles"
    INDEX 01 22:51:31
  TRACK 09 AUDIO
    TITLE "I'll Never Understand"
    PERFORMER "Stage Bottles"
    INDEX 01 26:19:20
  TRACK 10 AUDIO
    TITLE "12 O'Clock"
    PERFORMER "Stage Bottles"
    INDEX 01 29:49:74
  TRACK 11 AUDIO
    TITLE "Execution-Song"
    PERFORMER "Stage Bottles"
    INDEX 01 32:46:35
  TRACK 12 AUDIO
    TITLE "Western Culture"
    PERFORMER "Stage Bottles"
    INDEX 01 37:53:57
  TRACK 13 AUDIO
    TITLE "We Are The Rude Crew"
    PERFORMER "Stage Bottles"
    INDEX 01 41:09:63
  TRACK 14 AUDIO
    TITLE "Time Machine To 1969"
    PERFORMER "Stage Bottles"
    INDEX 01 43:57:50
